<?xml version="1.0" encoding="utf-8"?>
<!-- Generator: Adobe Illustrator 26.0.3, SVG Export Plug-In . SVG Version: 6.00 Build 0)  -->
<svg version="1.1" id="Layer_1" xmlns="http://www.w3.org/2000/svg" xmlns:xlink="http://www.w3.org/1999/xlink" x="0px" y="0px"
	 viewBox="0 0 136 22" style="enable-background:new 0 0 136 22;" xml:space="preserve">
<style type="text/css">
	.st0{fill:#0A2827;}
	.st1{fill:#3BAEA9;}
	.st2{fill:#3FAFA9;}
	.st3{fill:#3DAFA9;}
</style>
<g>
	<path class="st0" d="M88.6,12.2c0,1.6,0,3.1,0,4.7c0,0.8-0.1,1.5-0.4,2.3c-0.5,1.2-1.5,2-2.7,2.4c-0.9,0.3-1.8,0.3-2.8,0.2
		c-0.7,0-1.4-0.2-2.1-0.5c-1.2-0.5-1.8-1.5-2-2.7c0-0.2,0-0.5-0.1-0.7c0-0.1,0-0.1,0.1-0.1c0.6,0,1.1,0,1.7,0c0.1,0,0.1,0,0.1,0.1
		c0,0.3,0,0.5,0.1,0.8c0.2,0.7,0.6,1.1,1.3,1.3c1.1,0.3,2.1,0.3,3.2,0c0.9-0.3,1.4-0.9,1.6-1.8c0.1-0.3,0.1-0.6,0.1-0.9
		c0-0.8,0-1.6,0-2.4c0-0.1,0-0.1-0.1-0.1c-0.1,0-0.1,0-0.1,0.1c0,0.6-0.3,1-0.7,1.3c-0.5,0.4-1.1,0.6-1.7,0.7
		c-1.1,0.2-2.2,0.2-3.2-0.2c-1.2-0.4-1.9-1.3-2.2-2.5c-0.1-0.6-0.2-1.2-0.2-1.8c0-1.8,0-3.6,0-5.3c0-0.1,0-0.1,0.1-0.1
		c0.5,0,1.1,0,1.6,0c0.1,0,0.2,0,0.2,0.2c0,1.8,0,3.5,0,5.3c0,0.4,0,0.8,0.1,1.2c0.2,0.7,0.7,1.2,1.4,1.4c0.9,0.3,1.8,0.3,2.7,0
		c1.1-0.4,1.8-1.2,2-2.3c0.1-0.3,0.1-0.7,0.1-1c0-1.6,0-3.1,0-4.7c0-0.1,0-0.2,0.2-0.1c0.5,0,1.1,0,1.6,0c0.1,0,0.2,0,0.2,0.2
		C88.6,8.6,88.6,10.4,88.6,12.2z"/>
	<path class="st0" d="M73.6,16.6c-0.7,0-1.5,0-2.2,0c-0.1,0-0.1,0-0.2-0.1C70.1,15.2,69,14,68,12.7c-0.1-0.1-0.1-0.1-0.2,0
		c-0.9,1.3-1.9,2.5-2.8,3.8c-0.1,0.1-0.1,0.1-0.2,0.1c-0.5,0-1.1,0-1.6,0c-0.1,0-0.1,0-0.1-0.1c0-4.9,0-9.7,0-14.6
		c0-0.1,0-0.1,0.1-0.1c0.5,0,1.1,0,1.6,0c0.1,0,0.2,0,0.2,0.2c0,3.9,0,7.8,0,11.7c0,0.1,0,0.1,0,0.2c0-0.1,0.1-0.1,0.1-0.1
		c1.7-2.3,3.3-4.6,5-6.9c0-0.1,0.1-0.1,0.2-0.1c0.7,0,1.3,0,2,0c0,0,0.1,0,0.1,0c-0.3,0.4-0.6,0.9-0.9,1.3c-0.8,1-1.5,2-2.3,3
		c-0.1,0.1-0.1,0.1,0,0.2c1.5,1.7,2.9,3.5,4.4,5.2C73.5,16.5,73.5,16.5,73.6,16.6z"/>
	<path class="st0" d="M54.7,13.9c0,0.8,0,1.7,0,2.5c0,0.1,0,0.1-0.1,0.1c-0.5,0-1.1,0-1.6,0c-0.1,0-0.1,0-0.1-0.1c0-0.6,0-1.1,0-1.7
		c0,0,0-0.1-0.1-0.1c-0.1,0-0.1,0-0.1,0.1c0,0.6-0.3,0.9-0.7,1.2c-0.5,0.4-1.2,0.6-1.8,0.7c-0.9,0.1-1.8,0.1-2.6-0.2
		c-1.4-0.5-2.3-1.4-2.8-2.8c-0.5-1.4-0.5-2.9,0.1-4.3c0.5-1.3,1.4-2.2,2.7-2.6C48.9,6.3,50.5,6.3,52,7c1.5,0.7,2.3,1.9,2.6,3.4
		c0.1,0.4,0.1,0.9,0.1,1.3C54.7,12.5,54.7,13.2,54.7,13.9z M52.8,11.6c0-0.2,0-0.6-0.1-0.9c-0.2-1.1-0.9-1.9-2-2.3
		c-0.6-0.2-1.3-0.3-2-0.1c-1,0.2-1.8,0.7-2.3,1.7c-0.4,0.8-0.4,1.7-0.3,2.5c0.2,1.2,0.9,2,2.1,2.4c0.9,0.2,1.7,0.2,2.6-0.1
		c0.8-0.3,1.3-0.8,1.6-1.6C52.7,12.7,52.8,12.2,52.8,11.6z"/>
	<path class="st0" d="M76.9,9.2c0,2.4,0,4.8,0,7.3c0,0.1,0,0.2-0.1,0.2c-0.5,0-1.1,0-1.6,0c-0.1,0-0.1,0-0.1-0.1c0-4.9,0-9.7,0-14.6
		c0-0.1,0-0.1,0.1-0.1c0.5,0,1.1,0,1.6,0c0.1,0,0.1,0,0.1,0.1C76.9,4.3,76.9,6.8,76.9,9.2z"/>
	<path class="st0" d="M56.3,13.9c0-0.8,0-1.5,0-2.3c0-1.1,0.3-2.2,0.9-3.1c0.7-1,1.7-1.6,2.8-1.8c0.4-0.1,0.9-0.1,1.3-0.2
		c0.1,0,0.1,0,0.1,0.1c0,0.5,0,1.1,0,1.6c0,0.1,0,0.1-0.1,0.1c-0.8,0-1.5,0.2-2.1,0.7c-0.6,0.5-0.9,1.1-1,1.8c0,0.3-0.1,0.6-0.1,0.8
		c0,1.6,0,3.1,0,4.7c0,0.1,0,0.1-0.1,0.1c-0.5,0-1.1,0-1.6,0c-0.1,0-0.1,0-0.1-0.1C56.3,15.6,56.3,14.8,56.3,13.9z"/>
	<path class="st1" d="M106,14.5c0.5,0,0.9,0.2,1.1,0.6c0.4,0.8-0.1,1.7-1,1.7c-0.3,0-0.6,0-0.9-0.2c-0.4-0.2-0.6-0.7-0.5-1.2
		c0.1-0.5,0.4-0.8,0.9-0.9C105.8,14.5,105.9,14.5,106,14.5z"/>
	<path class="st2" d="M108.3,0.3c0,0.1-0.1,0.2-0.2,0.3c-0.4,0.5-7.4,9.4-7.7,9.7c-0.2,0.3-0.4,0.5-0.6,0.8
		c-0.1,0.1-0.1,0.1-0.2,0.1c-0.9,0-1.9,0-2.8,0c-0.6,0-1.2,0-1.8,0c-0.1,0-0.2,0-0.3-0.1c-0.6-0.8-1.2-1.5-1.9-2.3
		c-0.5-0.6-0.9-1.2-1.4-1.7c0,0-0.1-0.1,0-0.1c0,0,0.1,0,0.1,0c0.8,0,1.5,0,2.3,0c0.1,0,0.1,0,0.2,0.1c0.3,0.3,0.5,0.6,0.8,0.9
		c0.3,0.3,0.6,0.7,0.9,1c0.4,0.5,0.9,1,1.3,1.5c0.1,0.1,0.1,0.1,0.2,0.2c0.1,0.1,0.4,0.1,0.5,0C97.8,10.2,108,0.4,108.3,0.3
		C108.2,0.3,108.2,0.3,108.3,0.3z"/>
	<path class="st1" d="M102,16.6c-0.4,0-0.8,0-1.2,0c-0.1,0-0.2,0-0.2-0.1c-0.6-0.8-3.1-3.9-3.2-3.9c-0.2-0.3-0.4-0.3-0.7,0
		c-0.6,0.7-2.5,3.2-2.9,3.7c-0.1,0.1-0.2,0.2-0.2,0.3c-0.1,0.1-0.1,0.1-0.2,0.1c-0.8,0-1.6,0-2.3,0c0,0-0.1,0-0.1,0
		c0,0,0-0.1,0.1-0.1c0.4-0.4,3.4-4.2,3.5-4.3c0,0,0.1,0,0.1,0c1.7,0,3.3,0,5,0c0.1,0,0.2,0.1,0.3,0.2c0.5,0.7,2.4,3,2.8,3.5
		c0.2,0.2,0.4,0.5,0.6,0.7c0,0,0.1,0,0,0.1c0,0-0.1,0-0.1,0C102.8,16.6,102.4,16.6,102,16.6z"/>
	<polygon class="st3" points="30.1,1.2 44.2,1.2 36,8.9 36,4.3 30.1,4.3 	"/>
	<polygon class="st0" points="41.8,16.6 27.7,16.6 36,8.9 36,13.4 41.8,13.4 	"/>
</g>
</svg>
