<?xml version="1.0" encoding="utf-8"?>
<!-- Generator: Adobe Illustrator 26.0.3, SVG Export Plug-In . SVG Version: 6.00 Build 0)  -->
<svg version="1.1" id="Layer_1" xmlns="http://www.w3.org/2000/svg" xmlns:xlink="http://www.w3.org/1999/xlink" x="0px" y="0px"
	 viewBox="0 0 87.4 22" style="enable-background:new 0 0 87.4 22;" xml:space="preserve">
<style type="text/css">
	.st0{fill:#3DAFA9;}
	.st1{fill:#E9E9E9;}
	.st2{fill:#3BAEA9;}
	.st3{fill:#3FAFA9;}
</style>
<g>
	<g>
		<polygon class="st0" points="3.5,0.7 22.4,0.7 11.4,11 11.4,4.9 3.5,4.9 		"/>
		<polygon class="st1" points="19.2,21.3 0.4,21.3 11.4,11 11.4,17.1 19.2,17.1 		"/>
	</g>
	<g>
		<path class="st1" d="M71.4,13.5c0,1.2,0,2.5,0,3.7c0,0.6-0.1,1.2-0.3,1.8c-0.4,1-1.2,1.6-2.2,1.9c-0.7,0.2-1.5,0.2-2.2,0.2
			c-0.6,0-1.1-0.1-1.7-0.4c-0.9-0.4-1.4-1.2-1.6-2.2c0-0.2,0-0.4,0-0.6c0-0.1,0-0.1,0.1-0.1c0.4,0,0.9,0,1.3,0c0.1,0,0.1,0,0.1,0.1
			c0,0.2,0,0.4,0.1,0.6c0.2,0.5,0.5,0.9,1,1c0.9,0.3,1.7,0.3,2.6,0c0.7-0.2,1.1-0.8,1.2-1.5c0-0.2,0.1-0.5,0.1-0.7
			c0-0.6,0-1.3,0-1.9c0,0,0-0.1-0.1-0.1c-0.1,0-0.1,0-0.1,0.1c0,0.4-0.2,0.8-0.6,1c-0.4,0.3-0.9,0.5-1.4,0.6
			c-0.9,0.2-1.7,0.1-2.6-0.2c-1-0.3-1.5-1-1.8-2c-0.1-0.5-0.2-0.9-0.2-1.4c0-1.4,0-2.8,0-4.3c0-0.1,0-0.1,0.1-0.1c0.4,0,0.8,0,1.3,0
			c0.1,0,0.1,0,0.1,0.1c0,1.4,0,2.8,0,4.2c0,0.3,0,0.6,0.1,1c0.2,0.6,0.5,1,1.1,1.2c0.7,0.2,1.4,0.2,2.2,0c0.9-0.3,1.4-0.9,1.6-1.8
			c0.1-0.3,0.1-0.5,0.1-0.8c0-1.2,0-2.5,0-3.7c0-0.1,0-0.1,0.1-0.1c0.4,0,0.9,0,1.3,0c0.1,0,0.1,0,0.1,0.1
			C71.4,10.7,71.4,12.1,71.4,13.5z"/>
		<path class="st1" d="M59.3,17c-0.6,0-1.2,0-1.7,0c-0.1,0-0.1,0-0.1-0.1c-0.9-1-1.7-2-2.6-3c-0.1-0.1-0.1-0.1-0.1,0
			c-0.7,1-1.5,2-2.2,3c0,0.1-0.1,0.1-0.2,0.1c-0.4,0-0.9,0-1.3,0c-0.1,0-0.1,0-0.1-0.1c0-3.9,0-7.8,0-11.6c0-0.1,0-0.1,0.1-0.1
			c0.4,0,0.9,0,1.3,0c0.1,0,0.1,0,0.1,0.1c0,3.1,0,6.2,0,9.4c0,0,0,0.1,0,0.2c0,0,0.1-0.1,0.1-0.1c1.3-1.8,2.7-3.7,4-5.5
			c0-0.1,0.1-0.1,0.1-0.1c0.5,0,1.1,0,1.6,0c0,0,0,0,0.1,0c-0.3,0.4-0.5,0.7-0.8,1c-0.6,0.8-1.2,1.6-1.8,2.4c-0.1,0.1,0,0.1,0,0.2
			c1.2,1.4,2.3,2.8,3.5,4.2C59.3,16.9,59.3,17,59.3,17z"/>
		<path class="st1" d="M44.2,14.9c0,0.7,0,1.4,0,2c0,0.1,0,0.1-0.1,0.1c-0.4,0-0.9,0-1.3,0c-0.1,0-0.1,0-0.1-0.1c0-0.5,0-0.9,0-1.4
			c0,0,0-0.1,0-0.1c0,0-0.1,0-0.1,0.1c0,0.4-0.2,0.7-0.6,1c-0.4,0.3-0.9,0.5-1.5,0.6c-0.7,0.1-1.4,0.1-2.1-0.1
			c-1.1-0.4-1.9-1.1-2.3-2.2c-0.4-1.1-0.4-2.3,0.1-3.4c0.4-1,1.1-1.7,2.2-2.1c1.2-0.4,2.5-0.4,3.7,0.1c1.2,0.5,1.8,1.5,2.1,2.7
			c0.1,0.4,0.1,0.7,0.1,1.1C44.2,13.7,44.2,14.3,44.2,14.9z M42.7,13c0-0.2,0-0.4-0.1-0.7c-0.2-0.9-0.7-1.5-1.6-1.8
			c-0.5-0.2-1-0.2-1.6-0.1c-0.8,0.2-1.4,0.6-1.8,1.4c-0.3,0.6-0.3,1.3-0.2,2c0.2,1,0.7,1.6,1.7,1.9c0.7,0.2,1.4,0.1,2-0.1
			c0.6-0.2,1.1-0.7,1.3-1.3C42.6,13.9,42.7,13.5,42.7,13z"/>
		<path class="st1" d="M62,11.1c0,1.9,0,3.9,0,5.8c0,0.1,0,0.1-0.1,0.1c-0.4,0-0.9,0-1.3,0c-0.1,0-0.1,0-0.1-0.1c0-3.9,0-7.8,0-11.6
			c0-0.1,0-0.1,0.1-0.1c0.4,0,0.9,0,1.3,0c0.1,0,0.1,0,0.1,0.1C62,7.2,62,9.2,62,11.1z"/>
		<path class="st1" d="M45.5,14.9c0-0.6,0-1.2,0-1.8c0-0.9,0.2-1.7,0.7-2.5c0.6-0.8,1.3-1.3,2.3-1.5C48.9,9.1,49.2,9,49.6,9
			c0.1,0,0.1,0,0.1,0.1c0,0.4,0,0.8,0,1.3c0,0.1,0,0.1-0.1,0.1c-0.6,0-1.2,0.2-1.7,0.6c-0.5,0.4-0.7,0.9-0.8,1.4c0,0.2,0,0.5,0,0.7
			c0,1.3,0,2.5,0,3.8c0,0.1,0,0.1-0.1,0.1c-0.4,0-0.9,0-1.3,0c-0.1,0-0.1,0-0.1-0.1C45.5,16.2,45.5,15.6,45.5,14.9z"/>
		<path class="st2" d="M85.3,15.3c0.4,0,0.7,0.1,0.9,0.5c0.3,0.6-0.1,1.3-0.8,1.4c-0.3,0-0.5,0-0.7-0.2c-0.3-0.2-0.5-0.6-0.4-0.9
			c0.1-0.4,0.3-0.7,0.7-0.7C85.1,15.3,85.2,15.3,85.3,15.3z"/>
		<path class="st3" d="M87.1,4c0,0.1-0.1,0.2-0.2,0.2c-0.3,0.4-5.9,7.5-6.2,7.8c-0.2,0.2-0.3,0.4-0.5,0.6c0,0.1-0.1,0.1-0.2,0.1
			c-0.8,0-1.5,0-2.3,0c-0.5,0-1,0-1.4,0c-0.1,0-0.2,0-0.2-0.1c-0.5-0.6-1-1.2-1.5-1.8c-0.4-0.5-0.8-0.9-1.1-1.4c0,0,0,0,0-0.1
			c0,0,0,0,0.1,0c0.6,0,1.2,0,1.8,0c0.1,0,0.1,0,0.1,0.1c0.2,0.3,0.4,0.5,0.7,0.8c0.2,0.3,0.5,0.5,0.7,0.8c0.4,0.4,0.7,0.8,1.1,1.2
			c0,0.1,0.1,0.1,0.1,0.2c0.1,0.1,0.3,0.1,0.4,0C78.7,11.9,86.9,4.1,87.1,4C87,4,87,4,87.1,4z"/>
		<path class="st2" d="M82.1,17c-0.3,0-0.6,0-0.9,0c-0.1,0-0.1,0-0.2-0.1c-0.5-0.6-2.5-3.1-2.5-3.2c-0.2-0.2-0.4-0.2-0.5,0
			c-0.5,0.6-2,2.5-2.3,2.9c-0.1,0.1-0.1,0.2-0.2,0.2c0,0.1-0.1,0.1-0.2,0.1c-0.6,0-1.2,0-1.9,0c0,0-0.1,0-0.1,0c0,0,0-0.1,0-0.1
			c0.3-0.3,2.7-3.3,2.8-3.4c0,0,0.1,0,0.1,0c1.3,0,2.7,0,4,0c0.1,0,0.2,0.1,0.2,0.2c0.4,0.5,1.9,2.4,2.2,2.8
			c0.1,0.2,0.3,0.4,0.4,0.6c0,0,0.1,0,0,0.1c0,0-0.1,0-0.1,0C82.7,17,82.4,17,82.1,17z"/>
		<g>
			<path class="st1" d="M33.3,6h-7.2V4.4h9.2V6l-7.2,9.4h7.2V17h-9.2v-1.5L33.3,6z"/>
		</g>
	</g>
</g>
</svg>
