<?xml version="1.0" encoding="utf-8"?>
<!-- Generator: Adobe Illustrator 26.0.3, SVG Export Plug-In . SVG Version: 6.00 Build 0)  -->
<svg version="1.1" id="Layer_1" xmlns="http://www.w3.org/2000/svg" xmlns:xlink="http://www.w3.org/1999/xlink" x="0px" y="0px"
	 viewBox="0 0 87.4 22" style="enable-background:new 0 0 87.4 22;" xml:space="preserve">
<style type="text/css">
	.st0{fill:#3DAFA9;}
	.st1{fill:#0A2827;}
	.st2{fill:#3BAEA9;}
	.st3{fill:#3FAFA9;}
</style>
<g>
	<polygon class="st0" points="3.9,0.7 22.7,0.7 11.7,11 11.7,4.9 3.9,4.9 	"/>
	<polygon class="st1" points="19.5,21.3 0.7,21.3 11.7,11 11.7,17.1 19.5,17.1 	"/>
</g>
<g>
	<path class="st1" d="M71.8,13.5c0,1.2,0,2.4,0,3.7c0,0.6-0.1,1.2-0.3,1.8c-0.4,1-1.2,1.6-2.2,1.9C68.6,21,67.8,21,67.1,21
		c-0.6,0-1.1-0.1-1.7-0.4c-0.9-0.4-1.4-1.2-1.6-2.2c0-0.2,0-0.4,0-0.6c0-0.1,0-0.1,0.1-0.1c0.4,0,0.9,0,1.3,0c0.1,0,0.1,0,0.1,0.1
		c0,0.2,0,0.4,0.1,0.6c0.2,0.5,0.5,0.8,1,1c0.8,0.3,1.7,0.3,2.5,0c0.7-0.2,1.1-0.7,1.2-1.4c0-0.2,0.1-0.5,0.1-0.7c0-0.6,0-1.3,0-1.9
		c0,0,0-0.1-0.1-0.1c-0.1,0-0.1,0-0.1,0.1c0,0.4-0.2,0.8-0.6,1c-0.4,0.3-0.9,0.5-1.3,0.6c-0.9,0.2-1.7,0.1-2.5-0.2
		c-1-0.3-1.5-1-1.8-2c-0.1-0.5-0.2-0.9-0.2-1.4c0-1.4,0-2.8,0-4.2c0-0.1,0-0.1,0.1-0.1c0.4,0,0.8,0,1.3,0c0.1,0,0.1,0,0.1,0.1
		c0,1.4,0,2.8,0,4.2c0,0.3,0,0.6,0.1,1c0.2,0.6,0.5,1,1.1,1.1c0.7,0.2,1.4,0.2,2.1,0c0.9-0.3,1.4-0.9,1.6-1.8
		c0.1-0.3,0.1-0.5,0.1-0.8c0-1.2,0-2.5,0-3.7c0-0.1,0-0.1,0.1-0.1c0.4,0,0.9,0,1.3,0c0.1,0,0.1,0,0.1,0.1
		C71.8,10.7,71.8,12.1,71.8,13.5z"/>
	<path class="st1" d="M59.8,17c-0.6,0-1.2,0-1.7,0c-0.1,0-0.1,0-0.1-0.1c-0.9-1-1.7-2-2.6-3c-0.1-0.1-0.1-0.1-0.1,0
		c-0.7,1-1.5,2-2.2,3c0,0.1-0.1,0.1-0.2,0.1c-0.4,0-0.9,0-1.3,0c-0.1,0-0.1,0-0.1-0.1c0-3.8,0-7.6,0-11.5c0-0.1,0-0.1,0.1-0.1
		c0.4,0,0.9,0,1.3,0c0.1,0,0.1,0,0.1,0.1c0,3.1,0,6.1,0,9.2c0,0,0,0.1,0,0.1c0,0,0.1-0.1,0.1-0.1c1.3-1.8,2.6-3.6,4-5.4
		c0-0.1,0.1-0.1,0.1-0.1c0.5,0,1,0,1.6,0c0,0,0,0,0.1,0c-0.3,0.3-0.5,0.7-0.8,1c-0.6,0.8-1.2,1.6-1.8,2.4c-0.1,0.1,0,0.1,0,0.2
		c1.2,1.4,2.3,2.7,3.5,4.1C59.7,16.9,59.7,16.9,59.8,17z"/>
	<path class="st1" d="M44.7,14.8c0,0.7,0,1.3,0,2c0,0.1,0,0.1-0.1,0.1c-0.4,0-0.9,0-1.3,0c-0.1,0-0.1,0-0.1-0.1c0-0.4,0-0.9,0-1.3
		c0,0,0-0.1,0-0.1c0,0-0.1,0-0.1,0.1c0,0.4-0.2,0.7-0.6,1c-0.4,0.3-0.9,0.5-1.5,0.6c-0.7,0.1-1.4,0.1-2.1-0.1
		c-1.1-0.4-1.9-1.1-2.2-2.2c-0.4-1.1-0.4-2.3,0.1-3.4c0.4-1,1.1-1.7,2.2-2.1c1.2-0.4,2.5-0.4,3.7,0.1c1.2,0.5,1.8,1.5,2.1,2.7
		c0.1,0.3,0.1,0.7,0.1,1.1C44.7,13.7,44.7,14.3,44.7,14.8z M43.2,13c0-0.2,0-0.4-0.1-0.7c-0.2-0.9-0.7-1.5-1.6-1.8
		c-0.5-0.2-1-0.2-1.6-0.1c-0.8,0.2-1.4,0.6-1.8,1.3c-0.3,0.6-0.3,1.3-0.2,2c0.2,0.9,0.7,1.6,1.7,1.9c0.7,0.2,1.4,0.1,2-0.1
		c0.6-0.2,1.1-0.6,1.3-1.3C43.2,13.9,43.2,13.5,43.2,13z"/>
	<path class="st1" d="M62.4,11.1c0,1.9,0,3.8,0,5.7c0,0.1,0,0.1-0.1,0.1c-0.4,0-0.9,0-1.3,0c-0.1,0-0.1,0-0.1-0.1
		c0-3.8,0-7.6,0-11.5c0-0.1,0-0.1,0.1-0.1c0.4,0,0.9,0,1.3,0c0.1,0,0.1,0,0.1,0.1C62.4,7.3,62.4,9.2,62.4,11.1z"/>
	<path class="st1" d="M46,14.9c0-0.6,0-1.2,0-1.8c0-0.9,0.2-1.7,0.7-2.5c0.6-0.8,1.3-1.2,2.3-1.4c0.3-0.1,0.7-0.1,1.1-0.1
		c0.1,0,0.1,0,0.1,0.1c0,0.4,0,0.8,0,1.3c0,0.1,0,0.1-0.1,0.1c-0.6,0-1.2,0.2-1.7,0.6c-0.5,0.4-0.7,0.8-0.8,1.4c0,0.2,0,0.4,0,0.7
		c0,1.2,0,2.5,0,3.7c0,0.1,0,0.1-0.1,0.1c-0.4,0-0.9,0-1.3,0c-0.1,0-0.1,0-0.1-0.1C46,16.2,46,15.5,46,14.9z"/>
	<path class="st2" d="M85.6,15.3c0.4,0,0.7,0.1,0.9,0.5c0.3,0.6-0.1,1.3-0.8,1.3c-0.3,0-0.5,0-0.7-0.2c-0.3-0.2-0.5-0.6-0.4-0.9
		c0.1-0.4,0.3-0.6,0.7-0.7C85.4,15.3,85.5,15.3,85.6,15.3z"/>
	<path class="st3" d="M87.4,4.1c0,0.1-0.1,0.1-0.2,0.2c-0.3,0.4-5.9,7.4-6.1,7.7c-0.2,0.2-0.3,0.4-0.5,0.6c0,0.1-0.1,0.1-0.2,0.1
		c-0.8,0-1.5,0-2.3,0c-0.5,0-1,0-1.4,0c-0.1,0-0.2,0-0.2-0.1c-0.5-0.6-1-1.2-1.5-1.8c-0.4-0.5-0.7-0.9-1.1-1.4c0,0,0,0,0-0.1
		c0,0,0,0,0.1,0c0.6,0,1.2,0,1.8,0c0.1,0,0.1,0,0.1,0.1c0.2,0.2,0.4,0.5,0.7,0.7c0.2,0.3,0.5,0.5,0.7,0.8c0.3,0.4,0.7,0.8,1,1.2
		c0,0.1,0.1,0.1,0.1,0.2c0.1,0.1,0.3,0.1,0.4,0C79.1,12,87.2,4.2,87.4,4.1C87.4,4.1,87.4,4.1,87.4,4.1z"/>
	<path class="st2" d="M82.4,17c-0.3,0-0.6,0-0.9,0c-0.1,0-0.1,0-0.2-0.1c-0.5-0.6-2.5-3.1-2.5-3.1c-0.2-0.2-0.4-0.2-0.5,0
		c-0.5,0.6-2,2.5-2.3,2.9c-0.1,0.1-0.1,0.1-0.2,0.2c0,0.1-0.1,0.1-0.2,0.1c-0.6,0-1.2,0-1.9,0c0,0-0.1,0-0.1,0c0,0,0-0.1,0-0.1
		c0.3-0.3,2.7-3.3,2.8-3.4c0,0,0.1,0,0.1,0c1.3,0,2.7,0,4,0c0.1,0,0.2,0.1,0.2,0.2c0.4,0.5,1.9,2.4,2.2,2.7c0.1,0.2,0.3,0.4,0.4,0.5
		c0,0,0.1,0,0,0.1c0,0-0.1,0-0.1,0C83.1,17,82.8,17,82.4,17z"/>
	<g>
		<path class="st1" d="M33.9,6.1h-7.1V4.6h9.1v1.5l-7.1,9.3h7.1v1.5h-9.1v-1.5L33.9,6.1z"/>
	</g>
</g>
</svg>
